<svg width="192" height="69" viewBox="0 0 192 69" fill="none" xmlns="http://www.w3.org/2000/svg">
<path fill-rule="evenodd" clip-rule="evenodd" d="M95.457 40.3712C93.5194 42.3096 91.1562 43.2784 88.3678 43.2784C85.5786 43.2784 83.2226 42.3096 81.3006 40.3712C79.3774 38.4331 78.4162 36.0431 78.4162 33.2024C78.4162 30.3621 79.3774 27.9725 81.3006 26.0345C83.2226 24.0964 85.5786 23.1272 88.3678 23.1272C91.1562 23.1272 93.5194 24.0964 95.457 26.0345C97.3942 27.9725 98.363 30.3621 98.363 33.2024C98.363 36.0431 97.3942 38.4331 95.457 40.3712V40.3712ZM98.363 28.054C97.4818 26.1011 96.1462 24.5407 94.3562 23.3713C92.565 22.2028 90.5542 21.6177 88.3238 21.6177C85.1534 21.6177 82.4522 22.735 80.2218 24.9692C77.9906 27.2039 76.875 29.9477 76.875 33.2024C76.875 36.4583 77.9906 39.2026 80.2218 41.4364C82.4522 43.671 85.1534 44.7871 88.3238 44.7871C90.5542 44.7871 92.565 44.2037 94.3562 43.0343C96.1462 41.8657 97.4818 40.3046 98.363 38.3516V44.2989H99.9042V22.1059H98.363V28.054Z" fill="white"/>
<path fill-rule="evenodd" clip-rule="evenodd" d="M105.554 27.1217V22.1061H103.969V44.2991H105.554V31.9598C105.554 29.1788 106.302 27.0406 107.8 25.546C109.297 24.0522 111.131 23.3045 113.304 23.3045V21.7954C111.601 21.7954 110.046 22.2324 108.636 23.1048C107.227 23.978 106.199 25.3172 105.554 27.1217" fill="white"/>
<path fill-rule="evenodd" clip-rule="evenodd" d="M190.536 34.925C189.585 34.0445 188.427 33.4348 187.063 33.0955C185.699 32.7565 184.349 32.4208 183.014 32.0891C181.678 31.7579 180.531 31.2611 179.573 30.5998C178.615 29.938 178.136 29.0196 178.136 27.8442C178.136 26.4336 178.687 25.294 179.787 24.4273C180.888 23.5602 182.289 23.1268 183.992 23.1268C185.401 23.1268 186.634 23.4375 187.691 24.0589C188.747 24.6803 189.511 25.568 189.98 26.7221L191.258 25.9675C190.699 24.6359 189.782 23.5783 188.506 22.7939C187.228 22.0103 185.724 21.6177 183.992 21.6177C181.761 21.6177 179.963 22.2169 178.598 23.4153C177.233 24.6137 176.551 26.1007 176.551 27.8761C176.551 29.3263 177.028 30.4803 177.981 31.3382C178.935 32.1969 180.095 32.7953 181.459 33.1338C182.823 33.4728 184.173 33.8085 185.508 34.1402C186.843 34.4714 187.989 34.977 188.944 35.6566C189.899 36.3365 190.377 37.2819 190.377 38.4928C190.377 39.9402 189.789 41.0995 188.615 41.9707C187.441 42.8426 185.959 43.278 184.168 43.278C180.411 43.278 178.077 41.9174 177.167 39.1945L175.891 39.9491C177.064 43.1743 179.824 44.7867 184.168 44.7867C186.458 44.7867 188.329 44.1879 189.782 42.9891C191.235 41.7911 191.962 40.2896 191.962 38.4839C191.962 36.9918 191.487 35.8059 190.536 34.925" fill="white"/>
<path fill-rule="evenodd" clip-rule="evenodd" d="M114.995 32.581C115.141 29.8 116.118 27.5287 117.923 25.7678C119.728 24.0077 121.981 23.1268 124.682 23.1268C127.177 23.1268 129.298 23.9855 131.045 25.7012C132.791 27.4177 133.767 29.7113 133.973 32.581H114.995ZM124.682 21.6177C121.424 21.6177 118.738 22.7273 116.624 24.9466C114.51 27.1659 113.453 29.9179 113.453 33.2024C113.453 36.5757 114.525 39.3499 116.668 41.5248C118.81 43.6997 121.556 44.7871 124.902 44.7871C127.016 44.7871 128.902 44.3352 130.56 43.4334C132.218 42.5311 133.488 41.3105 134.369 39.7715L133.004 38.9722C132.3 40.2751 131.235 41.3182 129.812 42.1018C128.388 42.8862 126.752 43.278 124.902 43.278C122.201 43.278 119.926 42.4278 118.077 40.7258C116.228 39.0246 115.215 36.7977 115.039 34.0457H135.514C135.543 33.8981 135.558 33.6463 135.558 33.2912C135.558 30.1253 134.552 27.3879 132.542 25.0798C130.531 22.7717 127.911 21.6177 124.682 21.6177V21.6177Z" fill="white"/>
<path fill-rule="evenodd" clip-rule="evenodd" d="M165.488 43.0251L155.988 22.1064H154.402L164.725 44.9511L164.314 45.9873C163.55 47.8806 162.544 49.3445 161.296 50.3807C160.047 51.4157 158.689 51.8596 157.221 51.7115V53.1762C159.011 53.3239 160.67 52.7691 162.196 51.5117C163.722 50.2536 164.926 48.5306 165.807 46.3412L175.362 22.1064H173.777L165.488 43.0251Z" fill="white"/>
<path fill-rule="evenodd" clip-rule="evenodd" d="M148.931 33.0955C147.567 32.7565 146.217 32.4208 144.881 32.0891C143.546 31.7579 142.399 31.2611 141.441 30.5998C140.483 29.938 140.004 29.0196 140.004 27.8442C140.004 26.4336 140.555 25.294 141.655 24.4273C142.756 23.5602 144.157 23.1268 145.86 23.1268C147.269 23.1268 148.502 23.4375 149.559 24.0589C150.615 24.6803 151.379 25.568 151.848 26.7221L153.125 25.9675C152.567 24.6359 151.65 23.5783 150.373 22.7939C149.096 22.0103 147.592 21.6177 145.86 21.6177C143.629 21.6177 141.831 22.2169 140.466 23.4153C139.101 24.6137 138.419 26.1007 138.419 27.8761C138.419 29.3263 138.895 30.4803 139.849 31.3382C140.803 32.1969 141.962 32.7953 143.327 33.1338C144.69 33.4728 146.04 33.8085 147.376 34.1402C148.711 34.4714 149.857 34.977 150.811 35.657C151.767 36.3365 152.245 37.2819 152.245 38.4928C152.245 39.9402 151.657 41.0995 150.483 41.9707C149.309 42.8426 147.826 43.278 146.037 43.278C142.278 43.278 139.945 41.9174 139.035 39.1945L137.758 39.9491C138.932 43.1747 141.691 44.7871 146.037 44.7871C148.326 44.7871 150.197 44.1879 151.65 42.9895C153.104 41.7911 153.83 40.2896 153.83 38.4839C153.83 36.9918 153.355 35.8059 152.404 34.925C151.453 34.0445 150.295 33.4348 148.931 33.0955" fill="white"/>
<path fill-rule="evenodd" clip-rule="evenodd" d="M41.1341 44.0676C40.8473 43.9954 40.6865 43.951 40.6781 43.9486C37.7173 43.1012 36.2073 44.4998 34.7469 45.8535C33.9801 46.5645 33.1873 47.3001 32.1413 47.817C31.8977 47.9372 31.7749 47.8937 31.6941 47.8428C31.4573 47.6947 30.9061 46.9898 30.9017 43.6467L30.8993 43.2481C30.8637 37.7624 30.5921 31.422 28.7889 31.0799C26.5917 30.6602 24.9981 36.1685 24.0353 40.8553C24.0197 40.9303 23.9949 41.0671 23.9629 41.2507C23.0677 46.2905 22.3565 46.8066 22.1549 46.8458C22.0857 46.855 21.9457 46.7687 21.7581 46.4677C21.2537 45.6566 20.8441 44.8617 20.4825 44.1592C19.4969 42.2482 18.6453 40.5982 16.5025 39.169C15.8837 38.7558 14.8769 38.1727 13.5837 37.4226C9.78206 35.2223 4.03726 31.897 1.90766 29.1495C0.704855 27.6424 0.387655 26.1651 0.965655 24.7581C1.88446 22.5178 5.69886 19.7949 11.9017 19.1122C23.3973 17.8472 36.6285 21.3517 42.2733 23.0912C43.2453 30.6162 42.6341 37.6764 41.1341 44.0676V44.0676ZM65.8277 35.1932L65.3261 35.6589L65.4617 35.8074C66.5261 36.9731 67.0349 38.1126 66.9737 39.1944C66.9161 40.2258 66.3325 41.2329 65.2245 42.203C62.3001 44.7608 57.3257 45.9173 50.8361 45.5525C47.6197 45.3713 44.6941 44.8548 42.8173 44.4562C42.8333 44.3783 42.8513 44.3 42.8669 44.2221C44.2413 37.2596 44.4233 30.3003 43.4261 23.4612C44.3673 23.7723 46.1965 24.3832 48.1957 25.0789L48.3845 25.1446L48.6077 24.4962L48.4181 24.43C46.1245 23.6315 44.0997 22.9605 43.3149 22.7022C43.0473 21.0168 42.7093 19.3382 42.2973 17.6692L42.2961 17.6652C40.6849 11.933 38.9305 7.33337 37.0841 3.99918C35.8013 1.48249 34.8501 0.106526 34.8417 0.0952281L34.7721 0L34.3365 0.309895L34.4041 0.408754C34.5601 0.635526 38.2477 6.06796 40.7713 14.8875C41.3197 17.1499 41.7749 19.552 42.1621 22.2305C42.1673 22.2688 42.1713 22.306 42.1765 22.3443C36.3369 20.5648 23.2541 17.1737 11.8269 18.4299C7.28526 18.9302 1.75206 21.0422 0.336055 24.4966C-0.342345 26.1526 0.00765526 27.8627 1.37446 29.5772C3.58246 32.4256 9.39725 35.7916 13.2513 38.023C14.4709 38.7288 15.5245 39.3385 16.1281 39.7428C18.1245 41.076 18.9373 42.6525 19.8833 44.4864C20.2701 45.2366 20.6701 46.0121 21.1821 46.8336C21.5153 47.3671 21.8901 47.5983 22.2897 47.5196C23.1993 47.3401 23.9001 45.5021 24.6393 41.3358C24.6665 41.1797 24.6869 41.0627 24.7013 40.9949C26.1017 34.174 27.6113 31.7436 28.5377 31.7428L28.6633 31.7545C29.0109 31.8203 30.1509 32.8436 30.2185 43.2525L30.2209 43.6492C30.2245 46.4346 30.5781 47.9526 31.3341 48.4259C31.4985 48.5288 31.6773 48.5808 31.8657 48.5808C32.0493 48.5808 32.2425 48.5312 32.4401 48.4328C33.5641 47.8779 34.3909 47.1141 35.2073 46.3595C36.7117 44.965 37.9001 43.865 40.4925 44.6099C40.5009 44.6123 40.6701 44.6599 40.9769 44.7374C38.8137 53.5299 34.9961 61.0226 31.3889 66.6641C31.2673 66.8558 31.4537 67.1644 31.8425 67.666C31.8689 67.7156 31.9225 67.7887 32.0141 67.9138C32.1609 68.1139 32.5513 68.6453 32.5617 68.7684C32.5613 68.7635 32.5625 68.7474 32.5737 68.73L32.6749 68.7954V68.7954L32.7757 68.8608C37.6145 61.2918 40.9393 53.312 42.6757 45.1308C44.5677 45.5339 47.5121 46.0529 50.7989 46.2381C57.5997 46.6186 62.6197 45.421 65.7225 42.6727C66.9357 41.6009 67.5853 40.4441 67.6533 39.2344C67.7245 37.9589 67.1561 36.6495 65.9633 35.3417L65.8277 35.1932Z" fill="white"/>
<path fill-rule="evenodd" clip-rule="evenodd" d="M57.4807 33.3702C59.5475 33.3702 61.2227 31.6795 61.2227 29.5946C61.2227 27.5096 59.5475 25.8193 57.4807 25.8193C55.4135 25.8193 53.7383 27.5096 53.7383 29.5946C53.7383 31.6795 55.4135 33.3702 57.4807 33.3702" fill="white"/>
</svg>
