<?xml version="1.0" encoding="UTF-8"?>
<svg width="300px" height="100px" viewBox="0 0 300 100" version="1.1" xmlns="http://www.w3.org/2000/svg" xmlns:xlink="http://www.w3.org/1999/xlink">
    <!-- Generator: Sketch 60.1 (88133) - https://sketch.com -->
    <title>DBX-logo</title>
    <desc>Created with Sketch.</desc>
    <g id="Page-1" stroke="none" stroke-width="1" fill="none" fill-rule="evenodd">
        <g id="DBX-logo" fill="#FFFFFF">
            <path d="M91.8,99.6352941 L5.32890026,99.6352941 C2.3859335,99.6352941 1.51345603e-12,97.2498721 1.51345603e-12,94.3063939 L1.51345603e-12,5.32915601 C1.51345603e-12,2.38567775 2.3859335,3.0908609e-13 5.32890026,3.0908609e-13 L91.8,3.0908609e-13 C94.7429668,3.0908609e-13 97.1289003,2.38567775 97.1289003,5.32915601 L97.1289003,94.3063939 C97.1289003,97.2498721 94.7429668,99.6352941 91.8,99.6352941" id="Fill-1"></path>
            <path d="M191.726445,99.6352941 L105.255345,99.6352941 C102.312379,99.6352941 99.9267008,97.2498721 99.9267008,94.3063939 L99.9267008,56.4 C99.9267008,53.4567775 102.312379,51.070844 105.255345,51.070844 L191.726445,51.070844 C194.669668,51.070844 197.055345,53.4567775 197.055345,56.4 L197.055345,94.3063939 C197.055345,97.2498721 194.669668,99.6352941 191.726445,99.6352941" id="Fill-4"></path>
            <path d="M243.088645,48.5644501 L205.181995,48.5644501 C202.238772,48.5644501 199.853095,46.1785166 199.853095,43.2355499 L199.853095,5.32890026 C199.853095,2.3859335 202.238772,-1.49213975e-13 205.181995,-1.49213975e-13 L243.088645,-1.49213975e-13 C246.031611,-1.49213975e-13 248.417545,2.3859335 248.417545,5.32890026 L248.417545,43.2355499 C248.417545,46.1785166 246.031611,48.5644501 243.088645,48.5644501" id="Fill-6"></path>
            <path d="M155.015678,48.5644501 L105.707749,48.5644501 C102.401867,48.5644501 99.7218159,45.884399 99.7218159,42.5785166 L99.7218159,5.98618926 C99.7218159,2.68005115 102.401867,-1.49213975e-13 105.707749,-1.49213975e-13 L155.015678,-1.49213975e-13 C158.321816,-1.49213975e-13 161.001611,2.68005115 161.001611,5.98618926 L161.001611,42.5785166 C161.001611,45.884399 158.321816,48.5644501 155.015678,48.5644501" id="Fill-9"></path>
            <path d="M294.159616,48.5644501 L256.252967,48.5644501 C253.309744,48.5644501 250.924066,46.1785166 250.924066,43.2355499 L250.924066,5.32890026 C250.924066,2.3859335 253.309744,-1.49213975e-13 256.252967,-1.49213975e-13 L294.159616,-1.49213975e-13 C297.102839,-1.49213975e-13 299.488517,2.3859335 299.488517,5.32890026 L299.488517,43.2355499 C299.488517,46.1785166 297.102839,48.5644501 294.159616,48.5644501" id="Fill-12"></path>
            <path d="M243.088645,99.6352941 L205.181995,99.6352941 C202.238772,99.6352941 199.853095,97.2498721 199.853095,94.3063939 L199.853095,56.4 C199.853095,53.4567775 202.238772,51.070844 205.181995,51.070844 L243.088645,51.070844 C246.031611,51.070844 248.417545,53.4567775 248.417545,56.4 L248.417545,94.3063939 C248.417545,97.2498721 246.031611,99.6352941 243.088645,99.6352941" id="Fill-15"></path>
            <path d="M294.159616,99.6352941 L256.252967,99.6352941 C253.309744,99.6352941 250.924066,97.2498721 250.924066,94.3063939 L250.924066,56.4 C250.924066,53.4567775 253.309744,51.070844 256.252967,51.070844 L294.159616,51.070844 C297.102839,51.070844 299.488517,53.4567775 299.488517,56.4 L299.488517,94.3063939 C299.488517,97.2498721 297.102839,99.6352941 294.159616,99.6352941" id="Fill-17"></path>
        </g>
    </g>
</svg>