<?xml version="1.0" encoding="UTF-8" standalone="no"?>
<svg
   xmlns:dc="http://purl.org/dc/elements/1.1/"
   xmlns:cc="http://creativecommons.org/ns#"
   xmlns:rdf="http://www.w3.org/1999/02/22-rdf-syntax-ns#"
   xmlns:svg="http://www.w3.org/2000/svg"
   xmlns="http://www.w3.org/2000/svg"
   xmlns:sodipodi="http://sodipodi.sourceforge.net/DTD/sodipodi-0.dtd"
   xmlns:inkscape="http://www.inkscape.org/namespaces/inkscape"
   version="1.1"
   id="svg2"
   xml:space="preserve"
   width="707.33331"
   height="190.97333"
   viewBox="0 0 707.33331 190.97333"
   sodipodi:docname="ERCR21-RIO-KO[4].eps"><metadata
     id="metadata8"><rdf:RDF><cc:Work
         rdf:about=""><dc:format>image/svg+xml</dc:format><dc:type
           rdf:resource="http://purl.org/dc/dcmitype/StillImage" /></cc:Work></rdf:RDF></metadata><defs
     id="defs6"><linearGradient
       x1="0"
       y1="0"
       x2="1"
       y2="0"
       gradientUnits="userSpaceOnUse"
       gradientTransform="matrix(230.77,0,0,230.77,194.178,-1085.75)"
       spreadMethod="pad"
       id="linearGradient20"><stop
         style="stop-opacity:1;stop-color:#c1c7c7"
         offset="0"
         id="stop14" /><stop
         style="stop-opacity:1;stop-color:#f25746"
         offset="1"
         id="stop16" /><stop
         style="stop-opacity:1;stop-color:#f25746"
         offset="1"
         id="stop18" /></linearGradient><linearGradient
       x1="0"
       y1="0"
       x2="1"
       y2="0"
       gradientUnits="userSpaceOnUse"
       gradientTransform="matrix(231.424,0,0,231.424,0,-1068.06)"
       spreadMethod="pad"
       id="linearGradient28"><stop
         style="stop-opacity:1;stop-color:#a4a7a6"
         offset="0"
         id="stop24" /><stop
         style="stop-opacity:1;stop-color:#f25746"
         offset="1"
         id="stop26" /></linearGradient><linearGradient
       x1="0"
       y1="0"
       x2="1"
       y2="0"
       gradientUnits="userSpaceOnUse"
       gradientTransform="matrix(241.951,0,0,241.951,182.997,-779.952)"
       spreadMethod="pad"
       id="linearGradient40"><stop
         style="stop-opacity:1;stop-color:#f25746"
         offset="0"
         id="stop32" /><stop
         style="stop-opacity:1;stop-color:#f25746"
         offset="1"
         id="stop34" /><stop
         style="stop-opacity:1;stop-color:#f25746"
         offset="1"
         id="stop36" /><stop
         style="stop-opacity:1;stop-color:#f25746"
         offset="1"
         id="stop38" /></linearGradient><linearGradient
       x1="0"
       y1="0"
       x2="1"
       y2="0"
       gradientUnits="userSpaceOnUse"
       gradientTransform="matrix(242.369,0,0,242.369,0,-758.3)"
       spreadMethod="pad"
       id="linearGradient52"><stop
         style="stop-opacity:1;stop-color:#f25746"
         offset="0"
         id="stop44" /><stop
         style="stop-opacity:1;stop-color:#f25746"
         offset="1"
         id="stop46" /><stop
         style="stop-opacity:1;stop-color:#f25746"
         offset="1"
         id="stop48" /><stop
         style="stop-opacity:1;stop-color:#f25746"
         offset="1"
         id="stop50" /></linearGradient><linearGradient
       x1="0"
       y1="0"
       x2="1"
       y2="0"
       gradientUnits="userSpaceOnUse"
       gradientTransform="matrix(241.74,0,0,241.74,0,-443.6)"
       spreadMethod="pad"
       id="linearGradient60"><stop
         style="stop-opacity:1;stop-color:#ed2c31"
         offset="0"
         id="stop56" /><stop
         style="stop-opacity:1;stop-color:#42484c"
         offset="1"
         id="stop58" /></linearGradient><linearGradient
       x1="0"
       y1="0"
       x2="1"
       y2="0"
       gradientUnits="userSpaceOnUse"
       gradientTransform="matrix(242.463,0,0,242.463,182.485,-465.261)"
       spreadMethod="pad"
       id="linearGradient70"><stop
         style="stop-opacity:1;stop-color:#f25746"
         offset="0"
         id="stop64" /><stop
         style="stop-opacity:1;stop-color:#f25746"
         offset="0"
         id="stop66" /><stop
         style="stop-opacity:1;stop-color:#42484c"
         offset="1"
         id="stop68" /></linearGradient></defs><sodipodi:namedview
     pagecolor="#ffffff"
     bordercolor="#666666"
     borderopacity="1"
     objecttolerance="10"
     gridtolerance="10"
     guidetolerance="10"
     inkscape:pageopacity="0"
     inkscape:pageshadow="2"
     inkscape:window-width="640"
     inkscape:window-height="480"
     id="namedview4" /><g
     id="g10"
     inkscape:groupmode="layer"
     inkscape:label="ink_ext_XXXXXX"
     transform="matrix(1.3333333,0,0,-1.3333333,0,190.97333)"><g
       id="g12"
       transform="scale(0.1)"><path
         d="m 194.773,1148.57 225.176,26.94 v 138.85"
         style="fill:none;stroke:url(#linearGradient20);stroke-width:10;stroke-linecap:butt;stroke-linejoin:miter;stroke-miterlimit:10;stroke-dasharray:none;stroke-opacity:1"
         id="path22" /><path
         d="M 230.832,1291.74 5,1264.73 v -138.86"
         style="fill:none;stroke:url(#linearGradient28);stroke-width:10;stroke-linecap:butt;stroke-linejoin:miter;stroke-miterlimit:10;stroke-dasharray:none;stroke-opacity:1"
         id="path30" /><path
         d="m 183.734,839.945 236.215,35.196 v 136.219"
         style="fill:none;stroke:url(#linearGradient40);stroke-width:10;stroke-linecap:butt;stroke-linejoin:miter;stroke-miterlimit:10;stroke-dasharray:none;stroke-opacity:1"
         id="path42" /><path
         d="M 241.633,984.797 5,949.543 V 813.32"
         style="fill:none;stroke:url(#linearGradient52);stroke-width:10;stroke-linecap:butt;stroke-linejoin:miter;stroke-miterlimit:10;stroke-dasharray:none;stroke-opacity:1"
         id="path54" /><path
         d="m 5,498.668 v 136.219 l 236.004,35.164"
         style="fill:none;stroke:url(#linearGradient60);stroke-width:10;stroke-linecap:butt;stroke-linejoin:miter;stroke-miterlimit:10;stroke-dasharray:none;stroke-opacity:1"
         id="path62" /><path
         d="M 419.949,696.711 V 560.484 L 183.223,525.219"
         style="fill:none;stroke:url(#linearGradient70);stroke-width:10;stroke-linecap:butt;stroke-linejoin:miter;stroke-miterlimit:10;stroke-dasharray:none;stroke-opacity:1"
         id="path72" /><path
         d="M 5,493.793 196.902,380.949 h 223.047 v 5.071 L 5,630.016 Z"
         style="fill:none;stroke:#42484c;stroke-width:10;stroke-linecap:butt;stroke-linejoin:miter;stroke-miterlimit:10;stroke-dasharray:none;stroke-opacity:1"
         id="path74" /><path
         d="M 419.949,1316.76 231.992,1427.28 H 5 v -2.75 l 414.949,-243.99 z"
         style="fill:none;stroke:#a4a6a5;stroke-width:10;stroke-linecap:butt;stroke-linejoin:miter;stroke-miterlimit:10;stroke-dasharray:none;stroke-opacity:1"
         id="path76" /><path
         d="M 419.949,701.051 5,945.043 V 808.82 L 419.949,564.828 Z"
         style="fill:none;stroke:#ed2c31;stroke-width:10;stroke-linecap:butt;stroke-linejoin:miter;stroke-miterlimit:10;stroke-dasharray:none;stroke-opacity:1"
         id="path78" /><path
         d="M 419.949,1016.17 5,1260.16 V 1123.94 L 419.949,879.945 Z"
         style="fill:none;stroke:#f25746;stroke-width:10;stroke-linecap:butt;stroke-linejoin:miter;stroke-miterlimit:10;stroke-dasharray:none;stroke-opacity:1"
         id="path80" /><path
         d="m 2096.11,1293.14 h 91.46 c 18.74,0 49.62,0.51 49.62,30.84 0,7.7 -2.44,15.84 -8.69,21.65 -9.65,8.69 -22.19,9.62 -31.34,9.62 h -101.05 z m -121.76,139.09 h 249.79 c 29.8,-0.44 66.44,-0.9 94.82,-21.64 24.54,-18.78 40.03,-51.97 40.03,-86.16 0,-24.06 -7.7,-47.62 -21.74,-64.5 -19.24,-23.11 -42.37,-27.88 -56.77,-31.71 l 85.21,-135.8 h -134.76 l -69.85,123.7 h -64.97 v -123.7 h -121.76 v 339.81"
         style="fill:#ffffff;fill-opacity:1;fill-rule:nonzero;stroke:none"
         id="path82" /><path
         d="m 2335.35,1347.07 h 112.66 v -254.65 h -112.66 z m -0.5,85.16 h 113.16 v -59.18 h -113.16 v 59.18"
         style="fill:#ffffff;fill-opacity:1;fill-rule:nonzero;stroke:none"
         id="path84" /><path
         d="m 2538.01,1175.18 c 1.01,-3.84 1.91,-8.61 7.24,-14.43 10.07,-10.51 32.26,-15.35 51.45,-15.35 22.64,0 44.82,6.25 44.82,22.08 0,4.41 -1.98,7.26 -3.45,8.71 -6.23,7.22 -23.99,9.65 -59.62,14.92 -20.15,2.86 -39.99,6.25 -59.72,10.55 -49.54,11.6 -83.22,24.14 -83.22,72.3 0,81.29 124.6,82.22 159.29,82.22 73.61,0 145.34,-17.77 161.73,-84.72 l -112.66,-4.8 c -4.79,25.54 -45.73,27.43 -56.32,27.43 -21.64,0 -40.38,-6.26 -40.38,-20.13 0,-8.25 6.74,-12.54 21.63,-16.45 14,-3.87 85.68,-12.01 102.07,-14.4 38.48,-6.29 86.11,-14.49 86.11,-65.98 0,-25.04 -12.45,-40.88 -23.99,-52.47 -21.2,-19.66 -57.34,-40.44 -138.19,-40.44 -54.88,0 -104.46,9.65 -131.4,23.63 -29.39,15.36 -37.58,36.07 -39.94,62.55 l 114.55,4.78"
         style="fill:#ffffff;fill-opacity:1;fill-rule:nonzero;stroke:none"
         id="path86" /><path
         d="m 2735.39,1432.28 h 112.1 v -166.57 l 87.61,81.4 h 142.94 l -107.8,-93.47 111.65,-161.18 h -125.6 l -62.57,94.31 -45.73,-39.46 v -54.85 h -111.66 l -0.94,339.82"
         style="fill:#ffffff;fill-opacity:1;fill-rule:nonzero;stroke:none"
         id="path88" /><path
         d="m 519.605,1089.53 h 274.071 v 75.74 H 607.652 v 64.33 h 165.672 v 68.2 H 607.652 v 59.14 h 181.289 v 70.59 H 519.605 Z m 278.325,0 h 80.433 v 133.92 c 0,26.98 13.274,52.53 43.563,52.53 44.035,0 40.23,-33.99 40.23,-67.7 v -118.75 h 80.504 v 157.56 c 0,35.57 -6.63,95.17 -88.515,95.17 -29.344,0 -62.508,-15.57 -77.153,-40.66 h -0.976 v 33.6 H 797.93 Z m 324.24,148.16 c 4.73,29.87 23.68,50.21 52.02,50.21 26.99,0 46.41,-22.72 47.84,-50.21 z m 180.32,-44.99 c 3.78,83.28 -40.25,149.56 -128.3,149.56 -72.37,0 -132.51,-53.92 -132.51,-129.18 0,-82.39 54.47,-130.67 134.42,-130.67 54.9,0 107.46,24.65 122.11,81.42 h -75.25 c -7.57,-17.96 -26.47,-26.99 -45.89,-26.99 -34.05,0 -53.52,22.29 -54.9,55.86 z m 2.8,-103.17 h 80.51 v 121.71 c 0,30.75 20.81,58.16 60.6,58.16 10.85,0 20.36,-1.84 30.73,-4.7 v 73.32 c -6.17,1.44 -12.8,1.93 -18.86,1.93 -34.59,0 -62.08,-16.56 -73.87,-47.85 h -0.98 v 43.1 h -78.13 z m 331.94,129.23 c 0,-30.76 -14.64,-57.28 -48.72,-57.28 -33.16,0 -46.41,28.87 -46.41,57.71 0,30.36 11.34,61.6 46.86,61.6 35.98,0 48.27,-30.79 48.27,-62.03 m 76.22,116.44 h -77.15 v -30.78 h -0.97 c -14.2,25.12 -36.45,37.84 -65.79,37.84 -69.55,0 -107.9,-54.86 -107.9,-120.18 0,-69.13 33.62,-122.14 107.9,-122.14 26.1,0 50.66,13.26 65.38,35.99 h 0.93 v -23.16 c 0,-30.36 -3.8,-57.28 -42.11,-57.28 -12.34,0 -22.3,1.37 -29.39,5.24 -7.56,3.72 -11.83,10.33 -13.74,21.25 h -80.48 c 9.51,-65.81 63.48,-78.64 120.74,-78.64 114.98,0 122.58,75.82 122.58,116.04 z m 261.22,0 h -82.32 l -46.38,-160.02 h -0.94 l -46.4,160.02 h -85.18 l 63.4,-170.83 c 4.78,-13.26 20.44,-51.17 20.44,-64.43 0,-17.06 -13.83,-27.43 -32.29,-27.43 h -27.91 v -65.3 h 37.94 c 54.33,0 83.22,6.61 102.65,60.56 l 96.99,267.43"
         style="fill:#ed2c31;fill-opacity:1;fill-rule:nonzero;stroke:none"
         id="path90" /><path
         d="m 704.012,895.055 c -4.18,27.351 -24.699,41.797 -54.711,41.797 -45.59,0 -63.071,-39.891 -63.071,-80.547 0,-40.657 17.481,-80.555 63.071,-80.555 33.437,0 52.051,18.621 54.711,50.152 H 774.68 C 770.5,755.609 719.59,714.957 650.816,714.957 c -82.445,0 -135.257,62.695 -135.257,141.348 0,78.64 52.812,141.34 135.257,141.34 58.895,0 121.965,-37.239 123.864,-102.59 h -70.668"
         style="fill:#ffffff;fill-opacity:1;fill-rule:nonzero;stroke:none"
         id="path92" /><path
         d="m 884.898,764.352 c 30.399,0 39.512,29.257 39.512,54.714 0,25.079 -9.113,55.09 -39.512,55.09 -30.011,0 -39.132,-30.011 -39.132,-55.09 0,-25.457 9.121,-54.714 39.132,-54.714 z m 0,159.199 c 61.172,0 104.106,-45.215 104.106,-104.485 0,-59.273 -42.934,-104.109 -104.106,-104.109 -61.171,0 -103.722,44.836 -103.722,104.109 0,59.27 42.551,104.485 103.722,104.485"
         style="fill:#ffffff;fill-opacity:1;fill-rule:nonzero;stroke:none"
         id="path94" /><path
         d="m 1013.35,917.848 h 62.69 v -26.973 h 0.76 c 11.78,19.758 32.3,32.676 56.62,32.676 24.69,0 46.73,-7.981 57.37,-31.914 15.58,21.281 34.57,31.914 61.55,31.914 62.69,0 69.53,-47.488 69.53,-85.11 V 720.66 h -64.59 v 115.879 c 0,21.277 -10.26,33.816 -26.98,33.816 -27.73,0 -30.39,-21.277 -30.39,-53.191 V 720.66 h -64.59 v 112.078 c 0,23.188 -6.46,37.617 -24.32,37.617 -23.17,0 -33.06,-13.679 -33.06,-53.574 V 720.66 h -64.59 v 197.188"
         style="fill:#ffffff;fill-opacity:1;fill-rule:nonzero;stroke:none"
         id="path96" /><path
         d="m 1355.73,917.848 h 62.69 v -26.973 h 0.76 c 11.78,19.758 32.3,32.676 56.61,32.676 24.7,0 46.74,-7.981 57.38,-31.914 15.57,21.281 34.57,31.914 61.54,31.914 62.7,0 69.54,-47.488 69.54,-85.11 V 720.66 h -64.59 v 115.879 c 0,21.277 -10.26,33.816 -26.98,33.816 -27.74,0 -30.4,-21.277 -30.4,-53.191 V 720.66 h -64.59 v 112.078 c 0,23.188 -6.46,37.617 -24.31,37.617 -23.18,0 -33.06,-13.679 -33.06,-53.574 V 720.66 h -64.59 v 197.188"
         style="fill:#ffffff;fill-opacity:1;fill-rule:nonzero;stroke:none"
         id="path98" /><path
         d="m 1792.34,764.352 c 30.39,0 39.51,29.257 39.51,54.714 0,25.079 -9.12,55.09 -39.51,55.09 -30.02,0 -39.14,-30.011 -39.14,-55.09 0,-25.457 9.12,-54.714 39.14,-54.714 z m 0,159.199 c 61.17,0 104.1,-45.215 104.1,-104.485 0,-59.273 -42.93,-104.109 -104.1,-104.109 -61.17,0 -103.73,44.836 -103.73,104.109 0,59.27 42.56,104.485 103.73,104.485"
         style="fill:#ffffff;fill-opacity:1;fill-rule:nonzero;stroke:none"
         id="path100" /><path
         d="m 1966.37,821.344 c 0,-26.973 10.26,-56.992 39.52,-56.992 31.53,0 38.38,30.019 38.38,55.097 0,28.496 -10.26,54.707 -38.38,54.707 -29.26,0 -39.52,-27.734 -39.52,-52.812 z M 2106.58,720.66 h -61.56 v 22.793 h -0.75 c -12.92,-18.992 -31.16,-28.496 -54.34,-28.496 -61.93,0 -88.14,52.813 -88.14,108.672 0,51.289 27.35,99.922 83.2,99.922 23.94,0 42.94,-9.121 56.23,-26.973 h 0.77 v 95.36 h 64.59 V 720.66"
         style="fill:#ffffff;fill-opacity:1;fill-rule:nonzero;stroke:none"
         id="path102" /><path
         d="m 2133.96,917.848 h 64.59 V 720.66 h -64.59 z m 64.59,24.699 h -64.59 v 49.391 h 64.59 v -49.391"
         style="fill:#ffffff;fill-opacity:1;fill-rule:nonzero;stroke:none"
         id="path104" /><path
         d="m 2344.08,876.063 h -39.9 v -89.668 c 0,-15.579 9.12,-19.004 23.18,-19.004 5.7,0 11.02,0.757 16.72,0.757 V 720.66 c -11.78,-0.383 -23.56,-1.902 -35.34,-1.902 -55.09,0 -69.15,16.336 -69.15,69.527 v 87.778 h -32.67 v 41.785 h 32.67 v 59.66 h 64.59 v -59.66 h 39.9 v -41.785"
         style="fill:#ffffff;fill-opacity:1;fill-rule:nonzero;stroke:none"
         id="path106" /><path
         d="m 2480.5,703.18 c -15.2,-43.313 -39.13,-48.633 -82.45,-48.633 h -30.4 v 52.43 h 22.42 c 14.82,0 25.84,8.363 25.84,22.043 0,10.632 -12.54,41.035 -16.34,51.668 l -50.91,137.16 h 68.39 l 37.23,-128.418 h 0.76 l 37.23,128.418 h 66.12 L 2480.5,703.18"
         style="fill:#ffffff;fill-opacity:1;fill-rule:nonzero;stroke:none"
         id="path108" /><path
         d="m 594.59,534.156 h 59.269 c 21.278,0 32.676,11.016 32.676,31.914 0,20.137 -15.957,29.258 -35.719,29.258 H 594.59 Z m -70.672,117.782 h 138.301 c 47.492,0 94.984,-21.661 94.984,-76.368 0,-29.257 -13.676,-56.992 -42.551,-68.007 v -0.758 c 28.496,-7.219 37.614,-39.133 39.512,-64.973 1.141,-11.781 1.899,-50.543 11.399,-61.172 h -69.911 c -6.078,9.5 -6.836,35.328 -7.976,43.309 -1.903,27.367 -6.082,55.48 -39.516,55.48 H 594.59 V 380.66 h -70.672 v 271.278"
         style="fill:#ffffff;fill-opacity:1;fill-rule:nonzero;stroke:none"
         id="path110" /><path
         d="m 857.543,414.859 c 30.773,0 41.035,17.09 39.516,58.125 -9.121,-5.691 -25.836,-6.457 -39.891,-10.632 -14.82,-3.418 -26.598,-9.504 -26.598,-25.082 0,-16.34 12.157,-22.411 26.973,-22.411 z m -83.586,102.2 c 1.141,25.836 12.918,42.554 30.773,52.808 17.86,10.266 39.899,13.684 62.696,13.684 46.726,0 91.941,-10.266 91.941,-66.113 v -86.239 c 0,-16.719 0,-34.961 7.598,-50.539 h -64.969 c -2.656,6.078 -2.656,12.16 -3.801,18.61 -16.715,-17.848 -41.027,-24.309 -64.968,-24.309 -37.997,0 -67.247,19 -67.247,59.652 0,63.828 69.907,59.27 114.743,68.391 11.019,2.656 17.093,6.074 17.093,18.23 0,14.829 -17.855,20.52 -31.152,20.52 -18.617,0 -29.258,-8.359 -32.297,-24.695 h -60.41"
         style="fill:#ffffff;fill-opacity:1;fill-rule:nonzero;stroke:none"
         id="path112" /><path
         d="m 982.945,577.848 h 62.695 v -26.973 h 0.76 c 12.16,20.137 38.37,32.676 61.93,32.676 65.73,0 71.05,-47.871 71.05,-76.367 V 380.66 h -64.59 v 95.36 19.765 c 0,18.996 -6.46,34.57 -32.3,34.57 -24.31,0 -34.95,-20.894 -34.95,-42.175 V 380.66 h -64.595 v 197.188"
         style="fill:#ffffff;fill-opacity:1;fill-rule:nonzero;stroke:none"
         id="path114" /><path
         d="m 1203.34,651.938 h 64.59 V 512.125 l 58.89,65.723 h 74.85 l -72.18,-74.461 81.3,-122.727 h -77.89 l -48.25,79.403 -16.72,-16.336 V 380.66 h -64.59 v 271.278"
         style="fill:#ffffff;fill-opacity:1;fill-rule:nonzero;stroke:none"
         id="path116" /><path
         d="m 1411.96,577.848 h 64.59 V 380.66 h -64.59 z m 64.59,24.699 h -64.59 v 49.391 h 64.59 v -49.391"
         style="fill:#ffffff;fill-opacity:1;fill-rule:nonzero;stroke:none"
         id="path118" /><path
         d="m 1503.15,577.848 h 62.69 v -26.973 h 0.76 c 12.16,20.137 38.38,32.676 61.93,32.676 65.74,0 71.05,-47.871 71.05,-76.367 V 380.66 h -64.59 v 95.36 19.765 c 0,18.996 -6.46,34.57 -32.29,34.57 -24.32,0 -34.96,-20.894 -34.96,-42.175 V 380.66 h -64.59 v 197.188"
         style="fill:#ffffff;fill-opacity:1;fill-rule:nonzero;stroke:none"
         id="path120" /><path
         d="m 1814.36,534.156 c -28.49,0 -37.61,-25.078 -37.61,-49.394 0,-23.172 11.02,-46.348 37.23,-46.348 27.36,0 39.13,21.649 39.13,45.969 0,25.457 -10.26,49.773 -38.75,49.773 z m 99.93,-129.554 c 0,-31.922 -6.08,-93.09 -98.41,-93.09 -45.59,0 -89.67,10.258 -96.88,63.07 h 64.59 c 1.52,-8.352 5.31,-14.062 11.01,-17.094 5.32,-2.668 13.3,-4.179 23.56,-4.179 30.77,0 33.82,21.652 33.82,45.961 v 18.628 h -0.77 c -11.77,-18.25 -31.15,-28.878 -52.43,-28.878 -59.65,0 -86.62,42.55 -86.62,98.027 0,52.43 30.77,96.504 86.62,96.504 23.94,0 41.42,-10.266 52.81,-30.403 h 0.77 v 24.7 h 61.93 V 404.602"
         style="fill:#ffffff;fill-opacity:1;fill-rule:nonzero;stroke:none"
         id="path122" /><path
         d="m 1986.88,445.633 c 0,-10.254 4.18,-17.102 10.64,-22.043 6.08,-4.551 14.82,-6.84 23.94,-6.84 12.16,0 30.39,5.711 30.39,20.902 0,15.575 -20.51,17.864 -31.53,20.899 -40.66,10.254 -91.57,11.394 -91.57,64.59 0,47.109 51.29,60.41 90.05,60.41 42.93,0 88.9,-12.539 90.8,-63.828 h -59.65 c 0,7.976 -2.66,13.672 -8.36,17.09 -4.94,3.425 -11.78,4.941 -20.51,4.941 -10.64,0 -27.74,-1.133 -27.74,-14.816 0,-18.243 43.31,-22.418 72.95,-28.497 39.51,-7.976 50.15,-36.851 50.15,-53.191 0,-52.809 -50.15,-70.289 -94.61,-70.289 -47.11,0 -94.6,15.578 -96.5,70.672 h 61.55"
         style="fill:#ffffff;fill-opacity:1;fill-rule:nonzero;stroke:none"
         id="path124" /><path
         d="m 2191.71,380.66 c 0.38,33.82 15.2,65.352 41.41,88.145 22.8,19.758 48.25,33.054 69.15,46.355 20.14,13.305 34.57,26.215 34.57,44.074 0,20.899 -13.29,33.059 -34.19,33.059 -34.19,0 -44.07,-24.699 -44.07,-53.574 h -60.41 c -4.18,65.73 38.37,110.183 104.1,110.183 52.44,0 99.17,-27.351 99.17,-83.964 0,-51.297 -36.48,-69.532 -75.23,-93.848 -20.52,-12.156 -30.4,-19.004 -47.88,-35.711 h 125.76 V 380.66 h -212.38"
         style="fill:#ffffff;fill-opacity:1;fill-rule:nonzero;stroke:none"
         id="path126" /><path
         d="m 2563.32,513.258 c 0,34.582 -1.14,83.215 -43.69,83.215 -41.04,0 -43.32,-48.633 -43.32,-83.215 0,-34.57 2.28,-83.586 43.32,-83.586 42.55,0 43.69,49.016 43.69,83.586 z m -149.32,0 c 0,71.055 28.88,135.644 103.73,135.644 77.51,0 107.9,-64.589 107.9,-135.644 0,-70.664 -30.39,-136.02 -107.9,-136.02 -74.85,0 -103.73,65.356 -103.73,136.02"
         style="fill:#ffffff;fill-opacity:1;fill-rule:nonzero;stroke:none"
         id="path128" /><path
         d="m 2642,380.66 c 0.38,33.82 15.2,65.352 41.42,88.145 22.79,19.758 48.25,33.054 69.14,46.355 20.14,13.305 34.58,26.215 34.58,44.074 0,20.899 -13.3,33.059 -34.2,33.059 -34.19,0 -44.07,-24.699 -44.07,-53.574 h -60.41 c -4.18,65.73 38.37,110.183 104.1,110.183 52.44,0 99.17,-27.351 99.17,-83.964 0,-51.297 -36.47,-69.532 -75.23,-93.848 -20.52,-12.156 -30.39,-19.004 -47.87,-35.711 h 125.76 V 380.66 H 2642"
         style="fill:#ffffff;fill-opacity:1;fill-rule:nonzero;stroke:none"
         id="path130" /><path
         d="m 2880.63,543.277 v 47.493 c 37.62,-1.145 75.23,13.296 78.27,54.714 h 53.57 V 380.66 h -68.39 v 162.617 h -63.45"
         style="fill:#ffffff;fill-opacity:1;fill-rule:nonzero;stroke:none"
         id="path132" /><path
         d="M 2168.93,5.21875 H 2110.8 L 2065.71,186.32 h -0.75 L 2020.62,5.21875 h -59.25 L 1890.94,271.281 h 58.5 l 42.11,-181.1013 h 0.75 l 46.2,181.1013 h 54.78 l 45.46,-183.3396 h 0.75 l 43.6,183.3396 h 57.38 L 2168.93,5.21875"
         style="fill:#ffffff;fill-opacity:1;fill-rule:nonzero;stroke:none"
         id="path134" /><path
         d="m 2252.03,197.859 h 52.91 V 5.21875 h -52.91 z m 52.91,29.821 h -52.91 v 43.601 h 52.91 V 227.68"
         style="fill:#ffffff;fill-opacity:1;fill-rule:nonzero;stroke:none"
         id="path136" /><path
         d="m 2335.51,197.859 h 50.3 v -26.82 h 1.12 c 13.41,21.992 36.52,32.051 58.87,32.051 56.27,0 70.43,-31.68 70.43,-79.379 V 5.21875 h -52.91 V 114.02 c 0,31.679 -8.95,47.332 -33.91,47.332 -28.69,0 -40.99,-16.024 -40.99,-55.153 V 5.21875 h -52.91 V 197.859"
         style="fill:#ffffff;fill-opacity:1;fill-rule:nonzero;stroke:none"
         id="path138" /><path
         d="m 2545.3,197.859 h 50.3 v -26.82 h 1.12 c 13.42,21.992 36.52,32.051 58.88,32.051 56.27,0 70.43,-31.68 70.43,-79.379 V 5.21875 h -52.92 V 114.02 c 0,31.679 -8.94,47.332 -33.9,47.332 -28.7,0 -41,-16.024 -41,-55.153 V 5.21875 H 2545.3 V 197.859"
         style="fill:#ffffff;fill-opacity:1;fill-rule:nonzero;stroke:none"
         id="path140" /><path
         d="m 2884.77,122.219 c -4.84,26.832 -16.4,40.992 -42.11,40.992 -34.28,0 -42.85,-26.082 -43.97,-40.992 z m -86.08,-33.5276 c 1.49,-33.9101 17.52,-48.8203 47.32,-48.8203 21.25,0 38.39,13.0391 41.74,24.9687 h 46.58 C 2919.43,19 2887.75,0 2844.15,0 c -60.74,0 -98.38,41.7305 -98.38,101.359 0,57.75 39.88,101.731 98.38,101.731 65.59,0 97.63,-55.16 93.53,-114.3986 h -138.99"
         style="fill:#ffffff;fill-opacity:1;fill-rule:nonzero;stroke:none"
         id="path142" /><path
         d="m 2957.81,197.859 h 50.31 v -35.757 h 0.74 c 10.07,24.218 35.03,40.988 61.49,40.988 4.1,0 7.82,-0.75 11.55,-1.871 v -49.188 c -4.84,1.117 -12.67,1.867 -19,1.867 -39.13,0 -52.17,-27.578 -52.17,-61.8589 V 5.21875 h -52.92 V 197.859"
         style="fill:#ffffff;fill-opacity:1;fill-rule:nonzero;stroke:none"
         id="path144" /><path
         d="M 3166.94,1429.78 V 2.51172"
         style="fill:none;stroke:#ffffff;stroke-width:5;stroke-linecap:butt;stroke-linejoin:miter;stroke-miterlimit:10;stroke-dasharray:none;stroke-opacity:1"
         id="path146" /><path
         d="m 3318.63,933.508 h 67.97 c 26.53,0 40.46,12.594 40.46,37.797 0,30.495 -19.57,36.145 -41.12,36.145 h -67.31 z m -41.45,107.762 h 113.07 c 52.05,0 78.25,-23.88 78.25,-64 0,-45.426 -31.17,-57.032 -39.12,-59.68 v -0.664 c 14.25,-1.656 35.14,-12.934 35.14,-50.071 0,-27.851 3.98,-52.718 12.93,-62.335 h -44.43 c -6.3,10.281 -6.3,23.21 -6.3,34.816 0,43.437 -8.95,62.668 -47.08,62.668 h -61.01 V 804.52 h -41.45 v 236.75"
         style="fill:#ffffff;fill-opacity:1;fill-rule:nonzero;stroke:none"
         id="path148" /><path
         d="m 3610.11,905.32 c -1.65,23.875 -17.24,45.426 -43.1,45.426 -26.19,0 -44.1,-19.898 -45.1,-45.426 z m -88.2,-24.867 c 0,-26.859 14.59,-50.73 46.09,-50.73 22.22,0 35.15,9.613 41.78,28.515 h 35.81 c -7.96,-37.472 -40.45,-58.359 -77.59,-58.359 -54.04,0 -83.88,37.137 -83.88,90.187 0,48.743 31.83,90.52 82.89,90.52 54.04,0 87.2,-48.742 80.9,-100.133 h -126"
         style="fill:#ffffff;fill-opacity:1;fill-rule:nonzero;stroke:none"
         id="path150" /><path
         d="m 3692.37,859.559 c 2.32,-22.211 18.57,-29.836 38.8,-29.836 14.59,0 39.12,2.98 38.12,22.543 -0.99,19.898 -28.51,22.214 -56.03,28.515 -27.85,5.973 -55.04,15.918 -55.04,50.731 0,37.472 40.45,49.074 71.62,49.074 35.15,0 67.3,-14.258 71.62,-52.719 H 3762 c -3.65,18.235 -17.9,22.879 -34.82,22.879 -10.93,0 -31.16,-2.656 -31.16,-17.57 0,-18.571 27.85,-21.555 55.7,-27.528 27.52,-6.296 55.37,-16.246 55.37,-50.062 0,-40.785 -41.11,-55.707 -76.59,-55.707 -43.43,0 -74.93,19.23 -75.93,59.68 h 37.8"
         style="fill:#ffffff;fill-opacity:1;fill-rule:nonzero;stroke:none"
         id="path152" /><path
         d="m 3940.75,905.32 c -1.66,23.875 -17.25,45.426 -43.11,45.426 -26.2,0 -44.1,-19.898 -45.1,-45.426 z m -88.21,-24.867 c 0,-26.859 14.59,-50.73 46.1,-50.73 22.2,0 35.14,9.613 41.78,28.515 h 35.81 c -7.96,-37.472 -40.46,-58.359 -77.59,-58.359 -54.06,0 -83.9,37.137 -83.9,90.187 0,48.743 31.84,90.52 82.9,90.52 54.04,0 87.2,-48.742 80.9,-100.133 h -126"
         style="fill:#ffffff;fill-opacity:1;fill-rule:nonzero;stroke:none"
         id="path154" /><path
         d="m 4100.25,890.398 c -11.6,-7.625 -29.51,-7.293 -46.42,-10.277 -16.25,-2.656 -30.84,-8.621 -30.84,-28.516 0,-17.242 21.56,-21.882 34.82,-21.882 16.58,0 42.44,8.617 42.44,32.496 z m 37.8,-47.746 c 0,-9.285 1.99,-12.929 8.96,-12.929 h 3.97 c 1.66,0 3.32,0.332 5.3,0.664 v -26.199 c -5.63,-1.985 -17.56,-4.309 -23.86,-4.309 -15.59,0 -26.2,5.305 -29.18,20.887 -14.92,-14.586 -39.13,-20.887 -59.36,-20.887 -30.83,0 -58.68,16.582 -58.68,50.066 0,42.774 34.15,49.739 65.98,53.383 27.52,5.309 51.39,1.66 51.39,24.207 0,19.895 -20.55,23.211 -35.48,23.211 -21.22,0 -36.14,-8.621 -37.8,-27.191 h -37.79 c 2.65,44.101 39.78,57.031 77.92,57.031 33.49,0 68.63,-13.594 68.63,-49.738 v -88.196"
         style="fill:#ffffff;fill-opacity:1;fill-rule:nonzero;stroke:none"
         id="path156" /><path
         d="m 4165.93,975.945 h 35.48 v -33.156 h 0.67 c 4.3,18.234 27.18,37.797 50.06,37.797 8.95,0 10.61,-0.664 14.26,-0.996 v -36.469 c -5.31,0.996 -10.94,1.652 -16.25,1.652 -25.53,0 -46.41,-20.554 -46.41,-58.683 v -81.57 h -37.81 v 171.425"
         style="fill:#ffffff;fill-opacity:1;fill-rule:nonzero;stroke:none"
         id="path158" /><path
         d="m 4379.48,918.586 c -2.99,21.219 -17.91,32.16 -39.13,32.16 -19.56,0 -47.08,-10.609 -47.08,-62.34 0,-28.515 12.6,-58.683 45.43,-58.683 22.21,0 37.13,14.257 40.78,39.125 h 37.8 c -6.97,-44.766 -34.49,-68.969 -78.58,-68.969 -53.72,0 -83.23,38.133 -83.23,88.527 0,51.731 28.18,92.18 84.55,92.18 39.79,0 73.61,-19.895 77.26,-62 h -37.8"
         style="fill:#ffffff;fill-opacity:1;fill-rule:nonzero;stroke:none"
         id="path160" /><path
         d="m 4435.21,1041.27 h 37.8 v -87.872 h 0.66 c 9.28,15.586 28.85,27.188 51.39,27.188 37.47,0 60.68,-19.563 60.68,-58.356 V 804.52 h -37.8 v 107.765 c -1,26.856 -10.94,38.461 -33.49,38.461 -25.19,0 -41.44,-19.898 -41.44,-45.098 V 804.52 h -37.8 v 236.75"
         style="fill:#ffffff;fill-opacity:1;fill-rule:nonzero;stroke:none"
         id="path162" /><path
         d="m 4692.87,975.945 h 37.8 V 804.52 h -37.8 z m 0,65.325 h 37.8 v -35.82 h -37.8 v 35.82"
         style="fill:#ffffff;fill-opacity:1;fill-rule:nonzero;stroke:none"
         id="path164" /><path
         d="m 4758.87,975.945 h 35.81 v -25.199 l 0.66,-0.664 c 11.6,18.902 30.84,30.504 53.38,30.504 37.47,0 60.68,-19.563 60.68,-58.356 V 804.52 h -37.8 v 107.765 c -0.99,26.856 -10.94,38.461 -33.48,38.461 -25.2,0 -41.45,-19.898 -41.45,-45.098 V 804.52 h -37.8 v 171.425"
         style="fill:#ffffff;fill-opacity:1;fill-rule:nonzero;stroke:none"
         id="path166" /><path
         d="m 5142.86,890.398 c 0,29.508 -14.92,60.348 -48.74,60.348 -33.82,0 -48.74,-30.84 -48.74,-60.348 0,-29.843 14.92,-60.675 48.74,-60.675 33.82,0 48.74,30.832 48.74,60.675 z m -135.28,0 c 0,52.059 31.83,90.188 86.54,90.188 54.71,0 86.54,-38.129 86.54,-90.188 0,-52.718 -31.83,-90.519 -86.54,-90.519 -54.71,0 -86.54,37.801 -86.54,90.519"
         style="fill:#ffffff;fill-opacity:1;fill-rule:nonzero;stroke:none"
         id="path168" /><path
         d="m 5200.25,975.945 h 37.81 V 804.52 h -37.81 z m 0,65.325 h 37.81 v -35.82 h -37.81 v 35.82"
         style="fill:#ffffff;fill-opacity:1;fill-rule:nonzero;stroke:none"
         id="path170" /><path
         d="m 5267.24,1041.27 h 37.8 V 804.52 h -37.8 v 236.75"
         style="fill:#ffffff;fill-opacity:1;fill-rule:nonzero;stroke:none"
         id="path172" /><path
         d="m 3375,428.781 c 62.33,0 88.86,52.387 88.86,104.114 0,51.722 -26.53,104.113 -88.86,104.113 -62.67,0 -89.2,-52.391 -89.2,-104.113 0,-51.727 26.53,-104.114 89.2,-104.114 z m 0,227.457 c 74.27,0 111.41,-58.355 111.41,-123.343 0,-64.989 -37.14,-123.344 -111.41,-123.344 -74.61,0 -111.74,58.355 -111.74,123.344 0,64.988 37.13,123.343 111.74,123.343"
         style="fill:#ffffff;fill-opacity:1;fill-rule:nonzero;stroke:none"
         id="path174" /><path
         d="m 3505,585.613 h 20.89 V 414.52 H 3505 Z m 0,65.653 h 20.89 V 617.777 H 3505 v 33.489"
         style="fill:#ffffff;fill-opacity:1;fill-rule:nonzero;stroke:none"
         id="path176" /><path
         d="m 3553.42,651.266 h 20.89 V 414.52 h -20.89 v 236.746"
         style="fill:#ffffff;fill-opacity:1;fill-rule:nonzero;stroke:none"
         id="path178" /><path
         d="m 3582.61,651.266 h 26.53 l 66.98,-99.141 69.3,99.141 h 25.19 l -80.9,-115.387 85.55,-121.359 h -27.2 l -71.94,104.445 -72.95,-104.445 h -25.53 l 85.22,122.023 -80.25,114.723"
         style="fill:#ffffff;fill-opacity:1;fill-rule:nonzero;stroke:none"
         id="path180" /></g></g></svg>
