<svg width="179" height="65" viewBox="0 0 179 65" fill="none" xmlns="http://www.w3.org/2000/svg">
<path fill-rule="evenodd" clip-rule="evenodd" d="M8.23999 52.581C6.79817 51.2734 5.56232 49.8281 4.25781 48.2451C7.96536 54.6457 13.5953 59.601 20.4611 62.2851C16.067 59.601 11.9475 56.4351 8.23999 52.581" fill="white"/>
<path fill-rule="evenodd" clip-rule="evenodd" d="M0.824219 39.3667C1.16751 40.7432 1.57946 42.0508 1.99141 43.2896C4.11981 46.3179 6.38553 49.0708 9.0632 51.7549C14.1439 56.7102 19.7052 60.7708 25.6785 63.8679C27.0517 64.1432 28.4935 64.3496 29.798 64.4873C22.5889 61.2526 15.8604 56.7102 10.0244 50.8602C6.38553 47.3502 3.43323 43.4273 0.824219 39.3667" fill="white"/>
<path fill-rule="evenodd" clip-rule="evenodd" d="M0 32.9663C0 33.9987 0.137316 35.031 0.205975 35.9945C3.02096 41.0187 6.59119 45.7675 10.848 50.0345C17.4392 56.6416 25.0602 61.4592 33.2306 64.5563C34.2604 64.5563 35.2903 64.4875 36.3202 64.3498C27.326 61.3904 18.881 56.2975 11.6719 49.071C6.79716 44.2534 3.02096 38.7475 0 32.9663" fill="white"/>
<path fill-rule="evenodd" clip-rule="evenodd" d="M0.342693 27.8735C0.205377 28.6994 0.136719 29.5253 0.136719 30.3512C3.02036 36.8206 7.20851 42.8771 12.5639 48.2453C20.2536 55.8847 29.3165 61.0465 38.9973 63.8682C39.8212 63.7306 40.6451 63.5241 41.469 63.2488C31.2389 60.7712 21.4894 55.4029 13.3878 47.3506C7.62046 41.5694 3.295 34.8247 0.342693 27.8735" fill="white"/>
<path fill-rule="evenodd" clip-rule="evenodd" d="M1.23451 23.3311C1.02854 24.0193 0.822564 24.7763 0.753906 25.4646C3.6385 33.104 8.16899 40.3305 14.3482 46.5246C22.7245 54.8522 32.8859 60.2205 43.7339 62.4916C44.3519 62.2852 45.0384 62.0099 45.7946 61.6658C34.5337 59.6011 23.8231 54.2328 15.1721 45.6987C8.6496 39.0916 4.0495 31.5899 1.23451 23.3311" fill="white"/>
<path fill-rule="evenodd" clip-rule="evenodd" d="M2.67937 19.4766C2.40473 20.096 2.19876 20.7154 1.85547 21.3348C4.53314 30.0066 9.2019 37.9213 15.9991 44.7348C24.9933 53.7507 36.1159 58.9813 47.6505 60.7707C48.2684 60.4266 48.749 60.0136 49.3669 59.7383C37.5577 58.293 26.0232 52.9936 16.8916 43.9089C9.88848 36.8201 5.15106 28.4924 2.67937 19.4766" fill="white"/>
<path fill-rule="evenodd" clip-rule="evenodd" d="M13.7987 36.6139C11.945 36.201 10.5031 34.5492 10.5031 32.4845V31.8651C7.61949 26.9098 5.55975 21.5416 4.3239 16.1045C4.04927 16.5863 3.70597 17.1368 3.5 17.7563C5.76572 27.0474 10.5031 35.788 17.7122 43.0145C27.0498 52.3057 38.859 57.5363 50.9428 58.7063C51.4234 58.2933 51.9727 57.9492 52.4533 57.5363C40.0948 56.7104 28.0796 51.5486 18.6735 42.1886C16.8883 40.3992 15.2406 38.541 13.7987 36.6139" fill="white"/>
<path fill-rule="evenodd" clip-rule="evenodd" d="M11.945 29.3873C9.19867 24.2256 7.20759 18.7885 6.31503 13.0762C5.97174 13.6268 5.69711 14.0397 5.28516 14.5215C6.31503 20.0962 8.23746 25.4644 11.1211 30.4197C11.3271 30.0068 11.6704 29.7315 11.945 29.3873" fill="white"/>
<path fill-rule="evenodd" clip-rule="evenodd" d="M16.6148 36.2007C16.2715 36.4072 15.7909 36.6136 15.3789 36.6136C16.6148 38.2654 18.0566 39.7795 19.4984 41.3624C29.1105 50.8601 41.3317 55.8842 53.8275 56.4348C54.2394 56.0219 54.6514 55.6089 55.132 55.196C42.4989 54.9895 30.0031 50.0342 20.4596 40.3989C19.0864 39.0913 17.8506 37.646 16.6148 36.2007" fill="white"/>
<path fill-rule="evenodd" clip-rule="evenodd" d="M50.1875 53.6135C52.1786 53.82 54.2383 53.9576 56.2981 53.9576C56.5727 53.6135 56.916 53.2006 57.1906 52.9253C55.3369 53.4071 53.2771 53.6135 51.2174 53.6135H50.1875Z" fill="white"/>
<path fill-rule="evenodd" clip-rule="evenodd" d="M22.176 38.6787C20.8715 37.3022 19.4983 35.8569 18.3311 34.4116C18.1251 34.8246 17.9192 35.1687 17.6445 35.444C18.7431 36.8893 19.9103 38.2657 21.2834 39.5734C27.9433 46.1804 35.9763 50.5163 44.5585 52.581C41.9495 51.7552 39.6838 50.654 37.6241 49.071C31.9941 46.731 26.7074 43.221 22.176 38.6787" fill="white"/>
<path fill-rule="evenodd" clip-rule="evenodd" d="M14.3508 28.4927C11.1239 22.918 9.20143 16.7239 8.44619 10.5298C8.03424 10.9427 7.75961 11.3557 7.34766 11.7686C8.17155 17.7563 10.094 23.3998 12.9776 28.768C13.3896 28.5616 13.8015 28.4927 14.3508 28.4927" fill="white"/>
<path fill-rule="evenodd" clip-rule="evenodd" d="M18.8827 32.4847V33.1041C20.1186 34.7558 21.4917 36.27 23.0022 37.8529C26.5038 41.3629 30.4173 44.2535 34.6741 46.387V46.3182C34.4681 46.1117 34.2622 45.7676 33.9189 45.4923C33.5069 44.9417 33.095 44.46 32.683 43.8406C29.5934 41.9823 26.6411 39.5735 23.9634 36.8894C15.8618 28.9747 11.4677 18.7888 10.7124 8.25879C10.3005 8.67173 9.88851 8.94702 9.47656 9.35997C10.2318 16.1047 12.2915 22.5741 15.7931 28.5617C17.5096 29.1123 18.8827 30.6264 18.8827 32.4847" fill="white"/>
<path fill-rule="evenodd" clip-rule="evenodd" d="M31.4465 41.5692C31.1719 40.9498 30.8286 40.1927 30.5539 39.3669C28.9061 38.128 27.2583 36.6827 25.6105 35.1686C17.6462 27.2539 13.3894 16.9304 13.1148 6.40039C12.7028 6.67568 12.2909 7.0198 11.8789 7.2951C12.3595 17.8251 16.685 28.1486 24.7866 36.0633C26.8464 38.128 29.1121 39.9863 31.4465 41.5692" fill="white"/>
<path fill-rule="evenodd" clip-rule="evenodd" d="M56.3014 45.3547C51.6326 45.3547 47.1012 44.6664 42.707 43.0835C45.0414 44.9417 48.131 46.1806 51.4266 46.1806C53.2117 46.1806 54.8595 45.9053 56.3014 45.3547" fill="white"/>
<path fill-rule="evenodd" clip-rule="evenodd" d="M30.0023 37.5085C29.7963 36.8203 29.7277 36.2009 29.5904 35.5815C28.9038 34.8244 28.0799 34.205 27.3247 33.3791C19.3603 25.6021 15.4468 15.1409 15.4468 4.74854C15.0348 4.95501 14.6229 5.2303 14.2109 5.43677C14.4169 15.9668 18.4677 26.4279 26.5008 34.3427C27.6679 35.4438 28.7665 36.4762 30.0023 37.5085" fill="white"/>
<path fill-rule="evenodd" clip-rule="evenodd" d="M29.3854 33.792V32.0715C29.3167 32.0026 29.1794 31.865 29.1108 31.865C21.2837 24.0191 17.5075 13.6268 17.9195 3.30322C17.5075 3.50969 17.0956 3.78499 16.6836 3.99146C16.4777 14.315 20.3225 24.845 28.2869 32.5532C28.5615 32.9662 28.9735 33.3791 29.3854 33.792" fill="white"/>
<path fill-rule="evenodd" clip-rule="evenodd" d="M39.4805 39.0913C39.8238 39.7795 40.0984 40.399 40.5103 40.9495C46.414 43.496 52.8002 44.4595 58.9794 44.0466C59.666 43.6337 60.2839 43.0831 60.9018 42.6013C53.6927 43.496 46.209 42.3948 39.4805 39.0913" fill="white"/>
<path fill-rule="evenodd" clip-rule="evenodd" d="M38.6562 35.8569C38.7936 36.4763 38.8622 37.0269 38.9995 37.5087C46.2087 41.2252 54.4476 42.464 62.2747 41.1563C62.3433 41.0187 62.3433 41.0187 62.4806 40.9499C62.7553 40.5369 63.0986 40.124 63.3045 39.5734C55.0656 41.3628 46.2087 40.124 38.6562 35.8569" fill="white"/>
<path fill-rule="evenodd" clip-rule="evenodd" d="M29.5936 29.938C29.5936 29.5939 29.7309 29.1809 29.7309 28.9057C22.9337 21.3351 19.7755 11.6309 20.5307 2.1333C20.1187 2.33977 19.5695 2.54624 19.1575 2.75271C18.6769 12.6633 22.1098 22.7804 29.5249 30.5574C29.5249 30.3509 29.5249 30.1445 29.5936 29.938" fill="white"/>
<path fill-rule="evenodd" clip-rule="evenodd" d="M30.5535 26.0153C24.6489 18.9953 22.1772 9.97938 23.1384 1.30762C22.5891 1.44526 22.1772 1.51409 21.7652 1.72056C20.9413 10.8053 23.7563 20.0964 30.0042 27.4606C30.2102 27.0476 30.3475 26.497 30.5535 26.0153" fill="white"/>
<path fill-rule="evenodd" clip-rule="evenodd" d="M43.9419 35.6504H41.3329V34.5492C40.4403 33.9986 39.4104 33.5169 38.4492 32.8975V34.4116C46.2763 38.9539 55.3391 40.3304 63.9214 38.2657C64.1274 37.8528 64.196 37.4398 64.3334 37.0269V36.8892C57.6049 38.6786 50.3957 38.2657 43.9419 35.6504" fill="white"/>
<path fill-rule="evenodd" clip-rule="evenodd" d="M38.4492 31.5898C39.4104 32.2092 40.4403 32.691 41.3329 33.1728V31.8651C40.4403 31.3834 39.4791 30.7639 38.5865 30.1445C38.4492 30.6263 38.4492 31.1769 38.4492 31.5898" fill="white"/>
<path fill-rule="evenodd" clip-rule="evenodd" d="M63.9221 35.6504H47.7188C53.2114 37.0957 59.0474 37.0957 64.54 35.5815C64.54 35.1686 64.54 34.7557 64.6087 34.2051C64.4714 34.3427 64.1967 34.3427 63.9907 34.4115C63.9907 34.8245 63.9221 35.2374 63.9221 35.6504" fill="white"/>
<path fill-rule="evenodd" clip-rule="evenodd" d="M31.5812 23.3998C26.5005 16.7927 24.5781 8.53387 25.6079 0.687988C25.196 0.687988 24.784 0.825635 24.3721 0.894459C23.3422 9.29093 25.4706 17.825 30.9633 24.7762C31.1692 24.3633 31.3752 23.8127 31.5812 23.3998" fill="white"/>
<path fill-rule="evenodd" clip-rule="evenodd" d="M33.0229 21.1284C28.5601 14.9343 27.0496 7.43253 28.1481 0.206055C27.7362 0.274878 27.3242 0.274878 26.8436 0.412525C25.6764 7.91429 27.5302 15.8978 32.199 22.2984C32.4736 21.9543 32.6796 21.5413 33.0229 21.1284" fill="white"/>
<path fill-rule="evenodd" clip-rule="evenodd" d="M63.9209 33.1729C64.1269 33.104 64.4702 33.104 64.6075 32.9664V32.2782V31.7964C64.3329 31.8652 64.1269 32.0029 63.7836 32.0717C63.7836 32.347 63.9209 32.7599 63.9209 33.1729" fill="white"/>
<path fill-rule="evenodd" clip-rule="evenodd" d="M41.3333 29.1811H41.6766C40.7154 28.6993 39.8915 28.1487 39.0676 27.5293C38.9989 27.9422 38.8616 28.3552 38.793 28.7681C39.6169 29.3875 40.5094 30.0069 41.3333 30.5575V29.1811Z" fill="white"/>
<path fill-rule="evenodd" clip-rule="evenodd" d="M63.3711 29.5941C63.5084 30.0071 63.5771 30.42 63.5771 30.833C63.9204 30.7641 64.3323 30.6265 64.6069 30.5577C64.6069 30.1447 64.5383 29.7318 64.5383 29.3188C64.1263 29.3877 63.783 29.5253 63.3711 29.5941" fill="white"/>
<path fill-rule="evenodd" clip-rule="evenodd" d="M34.5342 19.2018C30.758 13.4894 29.5221 6.46941 30.758 0C30.346 0 29.7968 0.0688235 29.3848 0.0688235C28.149 7.02 29.5908 14.2465 33.7103 20.2341C34.0536 19.8212 34.2596 19.4771 34.5342 19.2018" fill="white"/>
<path fill-rule="evenodd" clip-rule="evenodd" d="M47.4409 29.1812C44.8319 28.2865 42.3602 26.91 40.0945 25.1895C39.8885 25.4647 39.6825 25.8777 39.4766 26.2906C40.9184 27.4606 42.4975 28.3553 44.1453 29.1812H47.4409Z" fill="white"/>
<path fill-rule="evenodd" clip-rule="evenodd" d="M36.3892 17.55C33.0249 12.2506 31.9951 5.85 33.2309 0H32.407H31.9951C30.6219 6.19412 31.8578 12.8012 35.4966 18.3759C35.7713 18.0318 36.1146 17.7565 36.3892 17.55" fill="white"/>
<path fill-rule="evenodd" clip-rule="evenodd" d="M63.1659 28.4925C63.5778 28.2861 63.9898 28.1484 64.333 28.0796C64.333 27.6667 64.1957 27.1161 64.1957 26.7031C63.7151 26.9096 63.3032 27.0472 62.7539 27.2537C62.9599 27.6667 63.0972 28.0796 63.1659 28.4925" fill="white"/>
<path fill-rule="evenodd" clip-rule="evenodd" d="M54.4465 29.1811V28.1487C49.915 27.8734 45.4523 26.2216 41.6761 23.3311C41.5387 23.3999 41.4701 23.5375 41.3328 23.6063C41.1268 23.8128 40.9208 24.0193 40.7148 24.1569C44.2164 26.9099 48.1299 28.5616 52.2494 29.1811H54.4465Z" fill="white"/>
<path fill-rule="evenodd" clip-rule="evenodd" d="M38.4474 16.1735C35.3578 11.3559 34.4652 5.57471 35.7011 0.0688235C35.2891 0.0688235 34.8772 0.0688235 34.4652 0C33.2294 5.64353 34.122 11.7688 37.4175 16.7929C37.7608 16.5865 38.0355 16.38 38.4474 16.1735" fill="white"/>
<path fill-rule="evenodd" clip-rule="evenodd" d="M62.479 26.0839C62.9596 25.8774 63.3715 25.8086 63.9208 25.6021C63.9208 25.1892 63.7835 24.7762 63.7148 24.3633C63.0969 24.5698 62.5476 24.7762 61.9297 24.845C62.1357 25.258 62.273 25.6709 62.479 26.0839" fill="white"/>
<path fill-rule="evenodd" clip-rule="evenodd" d="M42.7734 22.574C46.2063 25.1893 50.1199 26.6346 54.102 26.9099C54.0334 26.4969 53.8274 26.0152 53.6214 25.6022C50.1885 25.2581 47.0302 24.0193 44.1466 21.9546C43.5973 22.1611 43.1854 22.3675 42.7734 22.574" fill="white"/>
<path fill-rule="evenodd" clip-rule="evenodd" d="M61.45 23.8128C62.0679 23.6064 62.6858 23.3999 63.3037 23.1246C63.1664 22.7805 63.0978 22.3675 62.9604 21.9546C62.2739 22.1611 61.5186 22.5052 60.832 22.7116C61.038 22.9869 61.244 23.3999 61.45 23.8128" fill="white"/>
<path fill-rule="evenodd" clip-rule="evenodd" d="M50.531 22.5051C49.9817 22.2987 49.3638 22.0922 48.8832 21.8857C47.8533 21.5416 46.6861 21.5416 45.6562 21.6793C47.8533 22.9869 50.325 23.8128 52.6594 24.2257C52.0415 23.5375 51.3549 22.9181 50.531 22.5051" fill="white"/>
<path fill-rule="evenodd" clip-rule="evenodd" d="M40.7136 15.1413C37.83 10.8054 36.9374 5.43716 38.1733 0.481861C37.7613 0.413038 37.3494 0.275391 36.9374 0.275391C35.7016 5.43716 36.5255 11.0119 39.6151 15.6919C39.8897 15.4854 40.3017 15.2789 40.7136 15.1413" fill="white"/>
<path fill-rule="evenodd" clip-rule="evenodd" d="M60.2145 21.5413C61.0384 21.3348 61.725 21.1284 62.5489 20.8531C62.3429 20.4401 62.2743 20.0272 62.0683 19.6143C61.2444 20.0272 60.2832 20.3025 59.3906 20.4401C59.6653 20.8531 59.8712 21.266 60.2145 21.5413" fill="white"/>
<path fill-rule="evenodd" clip-rule="evenodd" d="M43.3216 14.522C40.3007 10.5991 39.4081 5.57495 40.5066 1.03259C40.0947 0.894947 39.6827 0.826124 39.2708 0.688477C38.1723 5.4373 38.9962 10.5991 41.9485 14.8661C42.3604 14.6597 42.9097 14.6597 43.3216 14.522" fill="white"/>
<path fill-rule="evenodd" clip-rule="evenodd" d="M46.4127 14.2464C42.9798 10.8053 41.8812 6.05644 42.9111 1.72056C42.4992 1.65173 42.0872 1.44526 41.6753 1.30762C40.6454 5.78115 41.6753 10.5988 44.7649 14.3153C45.2455 14.3153 45.7957 14.2464 46.4127 14.2464" fill="white"/>
<path fill-rule="evenodd" clip-rule="evenodd" d="M58.5656 19.408C59.5955 19.2703 60.6254 18.9951 61.5179 18.5821C61.4493 18.1692 61.2433 17.7562 61.0373 17.4121C59.8701 17.8251 58.6343 18.1692 57.3984 18.238C57.8104 18.6509 58.2223 18.9951 58.5656 19.408" fill="white"/>
<path fill-rule="evenodd" clip-rule="evenodd" d="M48.1305 14.3151C49.3664 14.4527 50.6022 14.728 51.8381 15.0721C50.5336 14.5215 49.2977 13.6957 48.2678 12.6633C45.4528 9.97918 44.5603 6.19389 45.2469 2.68389C44.8349 2.47742 44.423 2.27095 44.011 2.1333C43.1185 6.05624 44.217 10.5298 47.3066 13.6268C47.6499 13.8333 47.8559 14.1086 48.1305 14.3151" fill="white"/>
<path fill-rule="evenodd" clip-rule="evenodd" d="M52.8672 15.4853C54.0344 15.8982 55.0642 16.5176 56.0941 17.2059C57.5359 17.2059 59.0464 16.9306 60.4196 16.38C60.2136 15.967 60.0076 15.5541 59.8017 15.2788C57.5359 16.1047 55.1329 16.1047 52.8672 15.4853" fill="white"/>
<path fill-rule="evenodd" clip-rule="evenodd" d="M59.1816 14.2466C58.8383 13.8337 58.6323 13.4895 58.3577 13.0766C55.4741 13.9025 52.2471 13.2143 49.9814 10.9431C48.059 8.94719 47.2351 6.26307 47.5097 3.7166C47.0978 3.51013 46.6858 3.30366 46.2739 3.16602C45.7933 6.19425 46.6858 9.49778 49.0889 11.8378C51.7665 14.5219 55.68 15.3478 59.1816 14.2466" fill="white"/>
<path fill-rule="evenodd" clip-rule="evenodd" d="M57.5369 12.0437C57.1936 11.7684 56.919 11.3555 56.5757 10.9425C54.8592 11.149 53.0741 10.5296 51.7696 9.15312C50.6024 8.05194 49.9845 6.60665 49.9158 5.16136C49.5039 4.95489 49.0919 4.61077 48.68 4.4043C48.5427 6.40018 49.2979 8.53371 50.8084 10.1166C52.6621 11.9749 55.1338 12.5943 57.5369 12.0437" fill="white"/>
<path fill-rule="evenodd" clip-rule="evenodd" d="M52.5919 8.32782C53.4158 9.1537 54.4457 9.70429 55.5442 9.77311C54.2397 8.46546 52.7979 7.22664 51.2188 6.05664C51.4247 6.88252 51.8367 7.70841 52.5919 8.32782" fill="white"/>
<path fill-rule="evenodd" clip-rule="evenodd" d="M127.635 28.9742C124.889 28.4925 121.662 28.3548 120.014 26.4966C119.327 25.6707 119.327 24.2254 119.739 23.3995C120.838 21.1283 123.653 20.4401 126.33 20.6466C128.665 20.6466 130.862 21.8854 131.754 23.9501C132.166 24.776 132.304 25.6707 132.372 26.6342H139.993C140.131 23.606 138.895 20.5089 137.041 18.5819C134.638 16.1042 129.077 13.4889 122.211 14.5213C118.503 15.0719 113.56 17.2054 111.844 22.0919C110.402 26.6342 111.844 30.7636 114.659 32.8972C118.16 35.5813 124.751 36.2695 127.429 36.8889C130.519 37.5083 132.098 37.9213 132.578 39.7107C132.922 40.8119 132.784 42.1883 132.098 43.0831C130.107 45.6983 126.124 45.9048 122.898 44.9413C120.22 44.1154 119.121 41.9819 118.572 39.0913H110.539C110.539 41.7754 111.363 43.6336 112.736 45.7672C114.453 48.5889 117.542 50.8601 122.074 51.5483C127.017 52.3742 132.098 51.7548 135.05 50.1031C136.835 49.0707 138.14 47.7631 139.307 46.3178C140.955 44.2531 142.396 39.0913 139.787 34.5489C137.522 30.626 132.372 29.8001 127.635 28.9742" fill="white"/>
<path fill-rule="evenodd" clip-rule="evenodd" d="M101.064 19.4081C97.4254 15.3475 91.8641 13.6269 86.3028 14.4528C81.1534 15.2786 77.4459 18.1692 74.8369 22.2986C73.5324 24.6386 72.5711 27.3228 72.1592 29.9381C71.3353 36.201 73.1204 46.731 84.1057 50.8604C89.1864 52.7875 95.709 52.0992 100.652 48.4516C103.399 46.3869 106.214 41.7757 106.42 38.8851H97.2194C96.9448 40.1239 96.1896 41.7757 94.5418 43.0145C90.8342 45.6986 86.7147 43.9092 84.861 42.6016C82.046 40.5369 81.1534 37.0957 81.0161 32.278C81.0161 29.7316 81.7713 25.6022 83.8997 23.6063C86.3028 21.6792 89.1864 21.1286 91.8641 21.9545C94.8851 22.9181 97.1508 26.2216 96.9448 29.181H84.0371V35.6504H106.42C106.626 33.3104 106.214 31.0392 105.802 28.9057C105.046 25.671 103.124 21.748 101.064 19.4081" fill="white"/>
<path fill-rule="evenodd" clip-rule="evenodd" d="M167.937 40.7432C167.044 43.2208 164.435 44.6661 161.346 44.9414C160.728 45.0791 160.041 45.1479 159.286 45.0791C157.226 45.0791 155.441 44.0467 154.754 42.4638C153.931 40.9496 154.411 39.3667 154.96 38.472C156.196 36.2696 158.325 35.8567 161.346 35.2373C162.307 35.1685 163.337 34.962 164.435 34.6179C166.701 34.1361 167.25 33.7232 168.349 32.8973C168.349 33.7232 168.486 39.5732 167.937 40.7432M177.206 42.0508V30.9702C177.137 28.0796 177.137 25.1891 176.519 22.5049C175.901 19.8208 173.498 15.3473 165.877 14.4526C164.435 14.3149 162.925 14.3149 161.346 14.3149C158.805 14.4526 156.059 14.8655 153.931 15.6914C149.399 17.5496 147.133 21.9544 147.133 26.6344H155.372C155.166 24.2255 156.883 22.092 158.599 21.4726C159.286 21.1285 160.316 20.922 161.346 20.922C163.405 20.8532 165.465 21.3349 166.907 22.7114C167.868 23.6061 168.143 24.8449 167.868 26.2214C167.319 28.3549 164.985 29.112 161.346 29.5938C160.11 29.8002 158.668 29.9379 157.089 30.1444C152.763 30.6261 146.584 32.7596 145.142 39.0914C144.662 41.5691 145.074 46.1114 148.85 49.0708C151.459 51.0667 155.029 51.9614 157.844 51.8926C159.08 51.8926 160.316 51.7549 161.346 51.5485C164.229 50.9291 166.495 49.6214 168.692 47.832C168.761 48.3826 169.31 50.3096 169.722 50.8602H178.373C177 48.1761 177.206 44.2532 177.206 42.0508" fill="white"/>
</svg>
