<?xml version="1.0" encoding="UTF-8"?>
<svg width="157px" height="50px" viewBox="0 0 157 50" version="1.1" xmlns="http://www.w3.org/2000/svg" xmlns:xlink="http://www.w3.org/1999/xlink">
    <!-- Generator: Sketch 60 (88103) - https://sketch.com -->
    <title>logotypeForWeb Copy</title>
    <desc>Created with Sketch.</desc>
    <g id="Page-1" stroke="none" stroke-width="1" fill="none" fill-rule="evenodd">
        <g id="OilX---Homepage" transform="translate(-100.000000, -25.000000)" fill="#FFFFFF">
            <g id="logotypeForWeb-Copy" transform="translate(100.000000, 25.000000)">
                <polygon id="Shape" points="116 44.5153841 110.596536 50 87.4001181 50 82.0033458 44.5221762 82.0033458 40.6370984 82 40.6370984 82 0 91.2243653 0 91.2243653 40.6370984 91.2176737 40.6370984 91.2210195 40.6404945 91.2210195 40.6404945 106.775635 40.6404945 106.775635 40.6404945 106.775635 33.0367452 115.996654 33.0367452"></polygon>
                <polygon id="Shape" points="41 16 41 25.3135871 53.7986348 25.3135871 53.7986348 40.6864129 41 40.6864129 41 50 76 50 76 40.6864129 63.2047782 40.6864129 63.2047782 25.3135871 76 25.3135871 76 16"></polygon>
                <path d="M9.21858085,40.6343385 L9.2252731,40.6343385 L9.2252731,9.36226569 L9.2252731,9.36226569 L24.778073,9.36226569 L24.778073,40.6377343 L24.778073,40.6377343 L9.22192698,40.6377343 L9.22192698,40.6411301 L9.21858085,40.6343385 Z M5.40399567,0 L0,5.48424341 L0,44.5191524 L5.39730342,50 L28.5960043,50 L34,44.5157566 L34,5.4808476 L28.5993505,0.00339581635 L5.40399567,0.00339581635 L5.40399567,0 Z" id="Shape" fill-rule="nonzero"></path>
                <polygon id="Shape" points="147.778073 0 147.778073 14.5724377 141.085818 20.6275895 138.914182 20.6275895 132.221927 14.5724377 132.221927 0 123 0 123 18.7937241 130.234327 25.3107383 123 31.8243564 123 50 132.221927 50 132.221927 36.0490389 138.914182 29.9904911 141.085818 29.9904911 147.778073 36.0490389 147.778073 50 157 50 157 31.8243564 149.765673 25.3107383 157 18.7937241 157 0"></polygon>
                <polygon id="Rectangle-path" points="41 0 76 0 76 9 41 9"></polygon>
            </g>
        </g>
    </g>
</svg>