<svg xmlns="http://www.w3.org/2000/svg" xmlns:xlink="http://www.w3.org/1999/xlink" width="596" height="173" viewBox="0 0 596 173">
  <defs>
    <polygon id="signalocean-a" points=".587 .749 108.143 .749 108.143 115.2 .587 115.2"/>
  </defs>
  <g fill="none" fill-rule="evenodd">
    <path fill="#FFF" d="M46.2438 121.377C36.8618 121.377 29.0238 118.581 22.9478 113.059 17.3978 107.939 13.7178 100.742 12.0138 91.666 11.9338 91.242 12.2108 90.818 12.6318 90.725L25.2198 87.938C25.6668 87.839 26.0998 88.158 26.1688 88.61 27.0258 94.237 28.3608 98.156 30.2378 100.598 34.0298 105.863 39.6478 108.556 46.9048 108.556 52.6508 108.556 57.4988 106.592 61.3148 102.726 65.1228 98.864 67.0538 93.924 67.0538 88.037 67.0538 85.677 66.7178 83.471 66.0558 81.483 65.3818 79.465 64.3218 77.589 62.9038 75.901 61.5148 74.249 59.7078 72.689 57.5318 71.264 55.4168 69.88 52.8668 68.539 49.9538 67.283L39.0018 62.725C24.0088 56.389 16.7168 47.457 16.7168 35.425 16.7168 27.317 19.7328 20.722 25.9378 15.264 32.1198 9.777 39.9368 7 49.1788 7 61.0198 7 70.1768 12.305 77.1488 23.217 77.3918 23.597 77.2708 24.121 76.8828 24.351L67.1138 30.154C66.7468 30.372 66.2688 30.24 66.0398 29.879 63.7238 26.23 61.5168 23.832 59.2988 22.536 56.6588 20.845 53.1868 19.971 49.0318 19.971 43.9208 19.971 39.5988 21.46 36.1858 24.39 32.7068 27.326 30.9368 31.091 30.9368 35.573 30.9368 41.78 35.4158 46.766 44.2478 50.393L55.5498 55.016C64.4548 58.618 71.0268 63.036 75.0868 68.148 79.0948 73.192 81.1268 79.486 81.1268 86.862 81.1268 96.792 77.7818 105.101 71.1838 111.56 64.5288 118.075 56.1378 121.377 46.2438 121.377M104.9164 118.5307L104.9164 9.9937C104.9164 9.5557 105.2714 9.2007 105.7094 9.2007L118.0504 9.2007C118.4874 9.2007 118.8424 9.5557 118.8424 9.9937L118.8424 119.3257 118.8424 119.3237 105.7094 119.3237C105.2714 119.3237 104.9164 118.9687 104.9164 118.5307"/>
    <g transform="translate(143 6.251)">
      <mask id="signalocean-b" fill="#fff">
        <use xlink:href="#signalocean-a"/>
      </mask>
      <path fill="#FFF" d="M56.6758,115.1997 C41.3408,115.1997 28.0188,109.5827 17.0788,98.5037 C6.1358,87.3697 0.5868,73.8197 0.5868,58.2327 C0.5868,42.3067 6.2308,28.6137 17.3628,17.5297 C28.4988,6.3937 42.2438,0.7487 58.2168,0.7487 C66.7938,0.7487 74.9108,2.5247 82.3428,6.0277 C88.9028,9.2647 95.4938,14.4747 101.9198,21.5097 C102.2118,21.8297 102.1998,22.3367 101.8878,22.6367 L93.2598,30.9327 C92.9288,31.2517 92.3978,31.2077 92.1078,30.8517 C82.8488,19.4747 71.5468,13.7207 58.5098,13.7207 C46.1408,13.7207 35.6128,18.0537 27.2208,26.5957 C18.8408,34.9747 14.5868,45.6217 14.5868,58.2327 C14.5868,71.2607 19.3298,82.1517 28.6848,90.5957 C37.4138,98.4137 47.0268,102.3787 57.2628,102.3787 C66.0218,102.3787 73.9948,99.3887 80.9608,93.4897 C87.9588,87.5147 91.9198,80.2487 92.7408,71.8897 L92.9118,70.1467 L65.2908,70.1467 C64.8528,70.1467 64.4978,69.7917 64.4978,69.3547 L64.4978,58.0417 C64.4978,57.6047 64.8528,57.2497 65.2908,57.2497 L108.1428,57.2497 L108.1428,59.4067 C108.1428,67.7197 107.1528,75.1657 105.2028,81.5427 C103.3298,87.3487 100.1048,92.8887 95.6228,97.9847 C85.4738,109.4047 72.3688,115.1997 56.6758,115.1997" mask="url(#signalocean-b)"/>
    </g>
    <path fill="#FFF" d="M289.7389 41.1051L289.7389 118.5331C289.7389 118.9711 289.3839 119.3261 288.9459 119.3261L276.6049 119.3241C276.1669 119.3231 275.8119 118.9691 275.8119 118.5311L275.7769 12.4791C275.7759 11.0891 277.4379 10.3721 278.4499 11.3251L358.4359 86.7091 358.4359 9.9941C358.4359 9.5561 358.7909 9.2011 359.2279 9.2011L371.5689 9.2011C372.0069 9.2011 372.3619 9.5561 372.3619 9.9941L372.3619 116.4081C372.3619 117.8041 370.6899 118.5181 369.6809 117.5541L289.7389 41.1051zM514.8756 118.5307L514.8756 9.9937C514.8756 9.5557 515.2306 9.2007 515.6686 9.2007L528.0096 9.2007C528.4476 9.2007 528.8016 9.5557 528.8016 9.9937L528.8016 106.4257 565.2866 106.4257C565.7246 106.4257 566.0786 106.7807 566.0786 107.2187L566.0786 118.5307C566.0786 118.9687 565.7246 119.3237 565.2866 119.3237L515.6686 119.3237C515.2306 119.3237 514.8756 118.9687 514.8756 118.5307M392.0645 95.5999L397.3665 86.4159C397.5855 86.0369 398.0705 85.9069 398.4495 86.1259L405.5405 90.2189 443.5875 10.2749C443.8745 9.6709 444.7345 9.6729 445.0195 10.2779L482.9275 90.6559 490.7735 86.1259C491.1525 85.9069 491.6375 86.0369 491.8565 86.4159L497.5565 96.2869 445.4045 126.3949C444.9135 126.6779 444.3095 126.6779 443.8185 126.3949L392.3545 96.6829C391.9755 96.4639 391.8455 95.9789 392.0645 95.5999L392.0645 95.5999zM444.1625 79.3529C434.3415 79.3529 425.2505 83.8229 419.2185 91.6199L419.1055 91.7639 416.8415 96.7429 444.6115 112.7749 471.6605 97.1599 469.4355 92.0349 469.3205 91.8839C463.4165 84.0829 454.4185 79.5279 444.6345 79.3829 444.4145 79.3639 444.2905 79.3529 444.1625 79.3529L444.1625 79.3529zM444.6115 67.1789C448.6665 67.2199 452.6985 67.8209 456.5785 68.9699L459.8355 69.9319 444.7955 35.3019 429.1555 69.6719 432.4335 68.7569C436.2315 67.6979 440.1775 67.1629 444.1625 67.1629L444.6115 67.1789z"/>
    <polygon fill="#FFF" points="582.306 9.201 577.409 14.365 572.546 9.201 572.245 9.201 572.245 19.363 574.625 19.363 574.625 14.13 577.275 17.216 577.577 17.216 580.227 14.13 580.227 19.363 582.608 19.363 582.608 9.201"/>
    <polygon fill="#FFF" points="562.116 9.335 562.116 11.347 564.967 11.347 564.967 19.363 567.415 19.363 567.415 11.347 570.266 11.347 570.266 9.335"/>
    <path fill="#FFF" d="M14.0403 152.293C14.0403 144.174 20.2783 138.335 28.0773 138.335 35.8363 138.335 42.0753 144.174 42.0753 152.293 42.0753 160.411 35.8363 166.251 28.0773 166.251 20.2783 166.251 14.0403 160.411 14.0403 152.293M37.7563 152.293C37.7563 146.494 33.7573 142.135 28.0773 142.135 22.3983 142.135 18.3583 146.494 18.3583 152.293 18.3583 158.092 22.3983 162.451 28.0773 162.451 33.7573 162.451 37.7563 158.092 37.7563 152.293M46.1594 152.293C46.1594 144.174 52.3984 138.375 60.1174 138.375 64.9964 138.375 68.5964 140.175 70.9954 143.774L67.7564 146.094C66.2354 143.734 63.6774 142.175 60.1174 142.175 54.4774 142.175 50.4784 146.494 50.4784 152.293 50.4784 158.092 54.4774 162.451 60.1174 162.451 63.8764 162.451 66.3954 160.772 68.1554 158.172L71.3954 160.451C69.0364 164.051 65.1964 166.251 60.1174 166.251 52.3984 166.251 46.1594 160.411 46.1594 152.293"/>
    <polygon fill="#FFF" points="76.199 138.696 76.199 165.891 94.035 165.891 94.035 162.172 80.438 162.172 80.438 156.612 91.996 156.612 91.996 152.973 80.438 152.973 80.438 142.416 93.476 142.416 93.476 138.696"/>
    <path fill="#FFF" d="M109.1965 138.4151L109.6765 138.4151 121.5945 165.8901 117.1955 165.8901 115.6355 162.0511 103.1985 162.0511 101.6375 165.8901 97.5585 165.8901 109.1965 138.4151zM114.1165 158.4921L110.7165 150.0141C110.0775 148.4931 109.3975 146.2141 109.3565 146.0141 109.3175 146.1341 108.6765 148.4531 108.0375 150.0141L104.6375 158.4921 114.1165 158.4921zM132.2375 150.0137C131.1575 148.8537 129.6775 146.9737 129.6775 146.9737 129.6775 146.9737 129.9585 149.2137 129.9585 150.8937L129.9585 165.8907 126.0385 165.8907 126.0385 138.4147 126.5985 138.4147 141.5955 154.5317C142.6355 155.6527 144.1155 157.5727 144.1155 157.5727 144.1155 157.5727 143.8355 155.1727 143.8355 153.6527L143.8355 138.6957 147.7555 138.6957 147.7555 166.1707 147.2355 166.1707 132.2375 150.0137z"/>
  </g>
</svg>
